<svg width="170" height="170" viewBox="0 0 170 170" fill="none" xmlns="http://www.w3.org/2000/svg">
<path d="M128.964 11.984C169.14 38.3297 181.193 86.5583 158.004 127.1C140.798 157.182 103.67 174.358 70.297 167.673C32.7222 160.148 5.44622 131.95 0.904341 95.9368C-4.99139 49.1884 26.0981 5.24693 72.3618 0.749913C78.299 0.17279 81.6852 0.3123 87.6366 0.71844C104.326 1.85739 115.93 4.59814 128.964 11.984ZM142.929 58.4695C142.719 58.2148 142.463 58.0206 142.07 57.274C141.395 56.5455 140.721 55.817 139.463 54.472C138.499 54.3149 137.536 54.0226 136.572 54.021C120.215 53.9924 103.857 53.985 87.4999 54.0336C86.4233 54.0368 85.3482 54.5288 83.5296 54.9738C83.2841 55.0419 83.0385 55.1101 82.8851 55.0692C82.8851 55.0692 82.9815 55.1744 82.4521 54.511C81.8199 54.3454 81.1879 54.0364 80.5553 54.0351C65.0975 54.0038 49.6395 53.9856 34.1818 54.0436C33.118 54.0476 32.0566 54.6644 30.4502 55.2754C30.2795 55.3867 30.1087 55.4979 29.5507 55.4762C29.2625 55.5359 29.0495 55.6958 28.3459 56.0149C27.9207 56.3794 27.4955 56.7439 26.6594 57.2932C26.3976 57.5298 26.3471 57.8051 26.3115 59.0202C26.3121 75.179 26.1795 91.3403 26.4734 107.494C26.5123 109.631 28.724 111.729 30.5011 114.483C31.4649 114.655 32.4286 114.976 33.3925 114.977C67.5843 115.003 101.776 115.014 135.968 114.945C137.291 114.942 138.613 114.129 140.313 113.21C141.207 112.142 142.1 111.074 143.541 109.887C143.735 109.57 143.929 109.254 144.658 108.321C144.753 92.4558 144.858 76.5907 144.908 60.7254C144.91 60.1504 144.369 59.5738 143.579 58.8486C143.407 58.8781 143.235 58.9076 143.018 58.9963C143.018 58.9963 143.054 58.9382 142.929 58.4695Z" fill="#A40A71"/>
<path d="M29.9294 113.846C28.724 111.729 26.5123 109.631 26.4734 107.494C26.1795 91.3403 26.3121 75.179 26.5846 58.458C27.0261 57.6597 27.097 57.3972 27.0703 57.1084C27.4955 56.7439 27.9207 56.3794 28.8202 56.0042C29.5663 55.9612 29.7808 55.8331 29.938 55.6091C30.1087 55.4979 30.2795 55.3867 31.1846 55.2228C48.9399 55.1715 65.9607 55.173 82.9815 55.1744C82.9815 55.1744 82.8851 55.0692 82.8497 55.4599C81.7519 57.5076 80.4555 59.0617 79.6722 60.8416C77.6096 65.5288 74.0517 66.4203 69.2527 66.2788C57.9605 65.9456 46.6497 66.2964 35.3507 66.1106C30.8899 66.0372 29.0766 67.6401 29.153 72.1924C29.3398 83.3251 29.1532 94.4638 29.2905 105.598C29.3069 106.928 30.3993 108.245 31.3227 109.701C32.1149 109.868 32.5774 109.901 32.9662 109.981C32.8926 110.027 32.931 110.196 33.0385 110.34C33.4419 110.404 33.7378 110.324 34.4987 110.204C68.6313 110.191 102.299 110.217 136.08 110.385C136.482 110.404 136.773 110.281 137.064 110.072C137.066 109.986 136.926 109.885 137.306 109.823C138.481 107.892 139.924 106.038 139.964 104.153C140.189 93.6709 139.935 83.1787 140.135 72.6955C140.226 67.9451 138.284 66.0775 133.635 66.1334C122.983 66.2614 112.305 65.7483 101.683 66.328C94.7821 66.7045 89.3486 65.5692 86.0428 58.5883C85.6579 57.1717 85.3646 56.1033 85.5317 55.0948C104.01 55.1327 122.028 55.1106 140.046 55.0884C140.721 55.817 141.395 56.5455 142.087 57.8669C142.421 58.6192 142.738 58.7787 143.054 58.9382C143.054 58.9382 143.018 58.9963 143.014 59.4394C143.004 76.5905 142.999 93.2985 142.993 110.006C142.1 111.074 141.207 112.142 139.66 113.442C102.647 113.732 66.2884 113.789 29.9294 113.846Z" fill="#FDFBFD"/>
<path d="M85.0712 55.0348C85.3646 56.1033 85.6579 57.1717 85.7517 58.8239C85.3193 60.3709 85.0865 61.3342 84.6922 62.03C84.2816 61.1997 84.0324 60.6368 83.3483 59.0914C82.095 70.5689 80.952 81.0365 79.809 91.5042C79.3382 91.5237 78.8673 91.5432 78.3965 91.5628C78.0756 86.0424 77.7547 80.5219 77.3622 73.7692C74.6633 74.9266 72.3206 75.9313 69.5991 76.9873C63.404 75.7802 57.5877 74.5219 51.7715 73.2635C51.4813 73.778 51.1911 74.2925 50.901 74.807C51.8437 77.3059 53.3338 79.7468 53.606 82.3168C54.0586 86.5884 53.886 90.952 53.6349 95.2569C53.5586 96.5639 52.3561 97.8052 51.6694 99.0766C50.8581 97.973 49.5721 96.969 49.3161 95.7489C48.0897 89.9026 47.0532 84.0116 46.138 78.1072C45.7565 75.6459 45.0746 74.2566 42.1498 74.2944C39.2104 74.3325 38.6075 75.8757 38.171 78.2407C37.1769 83.6274 36.1212 89.0111 34.8027 94.3246C34.3693 96.0709 33.05 97.5973 31.9748 98.9767C31.2513 99.13 30.6889 99.5309 30.0911 100.364C30.3681 103.72 30.6806 106.644 30.993 109.568C30.3994 108.245 29.3069 106.928 29.2905 105.598C29.1532 94.4638 29.3398 83.3251 29.153 72.1924C29.0766 67.64 30.8899 66.0372 35.3507 66.1106C46.6497 66.2964 57.9605 65.9456 69.2527 66.2788C74.0517 66.4203 77.6096 65.5288 79.6722 60.8416C80.4555 59.0617 81.7519 57.5076 82.8037 55.5144C83.0385 55.1101 83.2841 55.0419 84.1013 54.937C84.6731 54.9003 85.0712 55.0348 85.0712 55.0348Z" fill="#A71877"/>
<path d="M30.2152 114.164C66.2884 113.789 102.647 113.732 139.471 113.684C138.613 114.129 137.291 114.942 135.968 114.945C101.776 115.014 67.5843 115.003 33.3925 114.977C32.4286 114.976 31.4649 114.655 30.2152 114.164Z" fill="#980060"/>
<path d="M85.5317 55.0948C85.0712 55.0348 84.6731 54.9003 84.4728 54.8469C85.3482 54.5288 86.4233 54.0368 87.4999 54.0336C103.857 53.985 120.215 53.9924 136.572 54.021C137.536 54.0226 138.499 54.3149 139.754 54.7802C122.028 55.1106 104.01 55.1327 85.5317 55.0948Z" fill="#96005D"/>
<path d="M82.7168 54.8427C65.9607 55.173 48.9399 55.1715 31.4565 55.0831C32.0566 54.6644 33.1181 54.0476 34.1819 54.0436C49.6395 53.9856 65.0975 54.0038 80.5553 54.0351C81.1879 54.0364 81.8199 54.3454 82.7168 54.8427Z" fill="#96005D"/>
<path d="M143.267 109.947C142.999 93.2985 143.004 76.5905 143.036 59.4098C143.235 58.9076 143.407 58.8781 143.8 59.3911C144.055 76.2682 144.089 92.6028 144.123 108.937C143.929 109.254 143.735 109.57 143.267 109.947Z" fill="#C686AB"/>
<path d="M144.391 108.629C144.089 92.6028 144.055 76.2682 144.051 59.4658C144.369 59.5738 144.91 60.1504 144.908 60.7254C144.858 76.5907 144.753 92.4558 144.391 108.629Z" fill="#9C0066"/>
<path d="M142.992 58.7038C142.738 58.7787 142.421 58.6192 142.133 58.1733C142.463 58.0206 142.719 58.2148 142.992 58.7038Z" fill="#C686AB"/>
<path d="M26.8649 57.2008C27.097 57.3972 27.0261 57.6597 26.6828 58.0075C26.3471 57.8051 26.3976 57.5298 26.8649 57.2008Z" fill="#D6ACC7"/>
<path d="M29.7443 55.5427C29.7808 55.8331 29.5663 55.9612 29.1031 55.9747C29.0495 55.6958 29.2625 55.5359 29.7443 55.5427Z" fill="#EFDBE9"/>
<path d="M84.8537 62.2974C85.0865 61.3342 85.3193 60.3709 85.8432 59.172C89.3486 65.5692 94.7821 66.7045 101.683 66.328C112.305 65.7483 122.983 66.2614 133.635 66.1334C138.284 66.0775 140.226 67.9451 140.135 72.6955C139.935 83.1787 140.189 93.6709 139.964 104.153C139.924 106.038 138.481 107.892 137.003 109.546C135.673 109.219 135.025 109.007 134.377 109.007C101.831 108.99 69.2846 108.98 36.7384 109.029C35.5051 109.031 34.2727 109.62 33.0398 109.935C32.5774 109.901 32.1149 109.868 31.3227 109.701C30.6806 106.644 30.3681 103.72 30.3011 100.591C31.0367 101.255 31.5267 102.124 32.4497 103.09C35.1334 103.188 37.3842 103.188 39.7123 103.188C38.6071 94.088 38.6071 94.088 43.5879 94.3641C43.0273 97.3047 42.4952 100.096 41.961 102.898C48.9397 102.898 55.3242 102.898 61.7019 102.898C60.6904 98.8511 59.7478 95.0801 58.7642 91.1448C68.5735 90.0293 69.388 89.1725 70.298 80.7322C71.4037 82.3533 72.4559 83.8089 72.7599 85.4068C73.8671 91.2284 74.7243 97.0975 75.6271 102.65C80.0895 104.795 81.9358 102.597 82.4965 100.013C84.6972 101.239 86.5977 102.298 88.4983 103.357C89.4344 101.525 90.7847 99.7865 91.2303 97.8413C92.6655 91.5756 93.7672 85.2334 95.4247 78.8807C96.6154 80.4303 98.0249 82.0183 98.0287 83.6097C98.0438 89.977 97.6223 96.3454 97.3554 102.883C102.382 102.883 108.255 102.883 113.695 102.883C113.695 98.7389 113.695 94.9919 113.695 90.2066C109.705 93.2987 111.563 101.448 103.839 98.4624C103.994 95.9936 104.15 93.4824 104.387 89.6979C105.586 91.3314 105.881 91.6748 106.11 92.0579C106.668 92.9903 107.195 93.9411 107.735 94.8845C108.147 93.9678 108.874 93.065 108.916 92.1319C109.061 88.8408 108.972 85.5393 108.972 82.2417C108.565 82.0928 108.158 81.9438 107.751 81.7949C106.779 83.2562 105.807 84.7175 104.191 87.1486C104.191 83.7048 104.191 81.4677 104.191 79.3163C110.887 76.5965 109.334 84.9012 113.618 86.3118C113.618 81.9924 113.618 78.1981 113.618 73.9766C107.192 74.3637 101.095 74.731 94.5766 74.9744C92.5663 74.8506 90.9766 74.8506 89.3497 74.8506C89.3497 80.7898 89.3497 86.1719 89.3497 91.554C88.7704 91.582 88.191 91.61 87.6116 91.638C86.6923 81.8578 85.773 72.0776 84.8537 62.2974ZM121.866 94.7973C122.381 93.8157 122.896 92.834 123.952 90.818C125.298 94.7435 126.401 97.3405 127.067 100.045C128.169 104.517 131.042 103.331 135.038 102.587C135.038 93.2718 135.038 84.066 135.038 74.7275C133.455 74.7275 131.244 74.7275 129.245 74.7275C129.987 80.1983 130.692 85.3893 131.397 90.5802C129.459 88.6102 128.672 86.4711 127.922 84.3189C127.54 83.2227 127.219 82.1049 126.883 80.9932C124.635 73.5681 124.169 73.3038 115.857 75.2089C116.364 76.7357 117.088 78.178 117.304 79.6928C118.252 86.3554 119.976 93.0895 116.376 99.5403C115.232 101.591 115.285 103.067 118.066 103.211C119.958 103.31 121.859 103.23 124.249 103.23C123.262 100.088 122.56 97.8538 121.866 94.7973Z" fill="#A61676"/>
<path d="M32.9662 109.981C34.2727 109.62 35.5051 109.031 36.7384 109.029C69.2846 108.98 101.831 108.99 134.377 109.007C135.025 109.007 135.673 109.219 136.623 109.608C136.926 109.885 137.066 109.986 136.784 110.017C136.324 110.113 136.146 110.178 135.967 110.243C102.299 110.217 68.6313 110.191 34.2266 110.109C33.3034 110.101 33.1172 110.148 32.931 110.196C32.931 110.196 32.8926 110.027 32.9662 109.981Z" fill="#980060"/>
<path d="M33.0385 110.34C33.1172 110.148 33.3034 110.101 33.7617 110.148C33.7378 110.324 33.4419 110.404 33.0385 110.34Z" fill="#E5C2D9"/>
<path d="M136.08 110.385C136.146 110.178 136.324 110.113 136.783 110.103C136.773 110.281 136.482 110.404 136.08 110.385Z" fill="#E5C2D9"/>
<path d="M69.9012 80.632C69.388 89.1725 68.5735 90.0293 58.7642 91.1448C59.7478 95.0801 60.6904 98.8511 61.702 102.898C55.3242 102.898 48.9397 102.898 41.961 102.898C42.4952 100.096 43.0273 97.3047 43.5879 94.3641C38.6072 94.088 38.6072 94.088 39.7123 103.188C37.3842 103.188 35.1334 103.188 32.4396 102.713C32.043 101.234 32.0894 100.229 32.1358 99.2242C33.05 97.5973 34.3693 96.0709 34.8027 94.3246C36.1212 89.0111 37.1769 83.6274 38.171 78.2407C38.6075 75.8757 39.2104 74.3325 42.1498 74.2944C45.0746 74.2566 45.7565 75.6459 46.138 78.1072C47.0532 84.0116 48.0897 89.9026 49.3161 95.7489C49.5721 96.969 50.8581 97.973 51.6694 99.0766C52.3561 97.8052 53.5586 96.5639 53.6349 95.2569C53.886 90.952 54.0586 86.5884 53.606 82.3168C53.3338 79.7468 51.8437 77.3059 50.901 74.807C51.1911 74.2925 51.4813 73.778 51.7715 73.2635C57.5877 74.5219 63.404 75.7802 69.6038 77.3583C69.9586 78.6628 69.9299 79.6474 69.9012 80.632ZM59.1682 85.0694C59.8254 88.0905 61.8665 87.4094 62.8887 85.869C63.7429 84.5816 63.8144 82.3431 63.3605 80.7789C63.0811 79.8159 61.1639 79.3281 59.1531 78.1352C59.1531 80.9882 59.1531 82.6098 59.1682 85.0694Z" fill="#F9F1F7"/>
<path d="M70.298 80.7322C69.9299 79.6474 69.9586 78.6628 69.9826 77.3071C72.3206 75.9313 74.6633 74.9267 77.3622 73.7693C77.7547 80.5219 78.0756 86.0424 78.3965 91.5628C78.8673 91.5433 79.3382 91.5237 79.809 91.5042C80.952 81.0366 82.095 70.5689 83.3483 59.0915C84.0324 60.6368 84.2816 61.1997 84.6922 62.03C85.773 72.0776 86.6923 81.8578 87.6116 91.638C88.191 91.61 88.7704 91.582 89.3497 91.554C89.3497 86.1719 89.3497 80.7898 89.3497 74.8506C90.9766 74.8506 92.5663 74.8506 94.576 75.3568C94.9965 76.8823 94.997 77.9015 94.9975 78.9208C93.7672 85.2335 92.6655 91.5756 91.2303 97.8413C90.7847 99.7865 89.4344 101.525 88.4983 103.357C86.5977 102.298 84.6972 101.239 82.4965 100.013C81.9358 102.597 80.0895 104.795 75.6271 102.65C74.7243 97.0975 73.8671 91.2284 72.7599 85.4068C72.4559 83.8089 71.4037 82.3533 70.298 80.7322Z" fill="#F8F0F6"/>
<path d="M31.9747 98.9767C32.0894 100.229 32.043 101.234 32.0067 102.615C31.5267 102.124 31.0367 101.255 30.3366 100.159C30.6889 99.531 31.2513 99.13 31.9747 98.9767Z" fill="#9F016A"/>
<path d="M32.4628 67.4715C32.5196 67.4418 32.406 67.5013 32.4628 67.4715Z" fill="#A0006B"/>
<path d="M121.862 95.2085C122.56 97.8538 123.262 100.088 124.249 103.23C121.859 103.23 119.958 103.31 118.066 103.211C115.285 103.067 115.232 101.592 116.376 99.5403C119.976 93.0895 118.252 86.3554 117.304 79.6928C117.088 78.178 116.364 76.7357 115.857 75.2089C124.169 73.3038 124.635 73.5681 126.883 80.9932C127.219 82.1049 127.54 83.2227 127.922 84.3189C128.672 86.4711 129.459 88.6102 131.397 90.5802C130.692 85.3893 129.987 80.1983 129.245 74.7275C131.244 74.7275 133.455 74.7275 135.038 74.7275C135.038 84.066 135.038 93.2718 135.038 102.587C131.042 103.331 128.169 104.517 127.067 100.045C126.401 97.3405 125.298 94.7435 123.952 90.818C122.896 92.834 122.381 93.8157 121.862 95.2085Z" fill="#F6EBF3"/>
<path d="M95.4247 78.8807C94.997 77.9015 94.9965 76.8823 94.9967 75.4807C101.095 74.731 107.192 74.3637 113.618 73.9766C113.618 78.1981 113.618 81.9924 113.618 86.3118C109.334 84.9012 110.887 76.5965 104.191 79.3163C104.191 81.4677 104.191 83.7048 104.191 87.1486C105.807 84.7175 106.779 83.2562 107.751 81.7949C108.158 81.9438 108.565 82.0928 108.972 82.2417C108.972 85.5393 109.061 88.8408 108.916 92.1319C108.874 93.065 108.147 93.9678 107.735 94.8845C107.195 93.9411 106.668 92.9903 106.11 92.0579C105.881 91.6748 105.586 91.3314 104.387 89.6979C104.15 93.4824 103.994 95.9936 103.839 98.4624C111.563 101.448 109.705 93.2987 113.695 90.2066C113.695 94.9919 113.695 98.7389 113.695 102.883C108.255 102.883 102.382 102.883 97.3554 102.883C97.6223 96.3454 98.0438 89.977 98.0287 83.6097C98.0249 82.0183 96.6154 80.4303 95.4247 78.8807Z" fill="#F7ECF3"/>
<path d="M59.1606 84.6504C59.1531 82.6098 59.1531 80.9882 59.1531 78.1352C61.1639 79.3281 63.0811 79.8159 63.3605 80.7789C63.8144 82.3431 63.7429 84.5816 62.8887 85.869C61.8665 87.4094 59.8254 88.0905 59.1606 84.6504Z" fill="#AC3383"/>
</svg>
